<svg version="1.1" xmlns="http://www.w3.org/2000/svg" xmlns:xlink="http://www.w3.org/1999/xlink" width="66.18722534179688" height="35.27000045776367"><defs></defs><g transform="translate(-33.859375,25.199996948242188)"><rect fill="rgb(0,0,0)" stroke="none" x="0" y="0" width="66.18722534179688" height="35.27000045776367" fill-opacity="1" transform="translate(33.859375,-25.199996948242188)"></rect><g transform="translate(33.359375,18.5) rotate(0,0,0) translate(-33.359375,-18.5) matrix(1,0,0,1,33.359375,18.5)"><path fill="rgb(255,255,255)" fill-opacity="1" d="M0.50-16.45L0.78-16.49Q0.90-15.51 1.20-14.45Q1.51-13.40 2.11-12.54Q2.70-11.69 3.63-11.14Q4.55-10.59 5.91-10.59L5.91-10.59Q7.27-10.59 8.56-11.09Q9.85-11.59 11.08-12.51Q12.31-13.42 13.48-14.68Q14.66-15.93 15.76-17.45L15.76-17.45Q14.47-17.41 13.17-17.35Q11.87-17.29 10.53-17.22L10.53-17.22Q10.25-17.22 9.90-17.14Q9.55-17.05 9.48-17.05L9.48-17.05Q9.24-17.05 9.24-17.36L9.24-17.36Q9.24-17.50 9.32-17.69Q9.41-17.88 9.57-18.05Q9.73-18.23 9.98-18.34Q10.23-18.46 10.53-18.46L10.53-18.46Q11.19-18.46 12.79-18.52Q14.40-18.58 16.58-18.70L16.58-18.70Q18.24-21.13 19.74-23.95Q21.24-26.76 22.58-29.54Q23.91-32.31 25.11-34.88Q26.30-37.45 27.34-39.40Q28.37-41.36 29.23-42.53Q30.10-43.70 30.83-43.70L30.83-43.70Q31.27-43.70 31.54-43.41Q31.81-43.12 31.94-42.64Q32.07-42.16 32.11-41.54Q32.14-40.91 32.14-40.26L32.14-40.26Q32.14-37.49 31.92-34.86Q31.70-32.22 31.40-29.63Q31.11-27.04 30.82-24.45Q30.52-21.86 30.36-19.19L30.36-19.19Q31.02-19.23 31.63-19.23Q32.23-19.23 32.80-19.23L32.80-19.23L33.80-19.23Q34.34-19.23 34.75-19.20Q35.16-19.16 35.16-18.93L35.16-18.93Q35.16-18.65 34.89-18.33Q34.63-18.02 34.02-18.02L34.02-18.02Q33.03-17.97 32.12-17.97Q31.20-17.97 30.27-17.97L30.27-17.97Q30.22-17.08 30.22-16.20Q30.22-15.32 30.22-14.43L30.22-14.43Q30.22-13.68 30.31-12.93Q30.41-12.18 30.69-11.58Q30.97-10.98 31.47-10.60Q31.98-10.21 32.80-10.21L32.80-10.21Q33.38-10.21 33.96-10.50Q34.53-10.80 35.05-11.28Q35.56-11.76 35.98-12.34Q36.41-12.93 36.69-13.52L36.69-13.52L36.97-13.38Q36.69-12.77 36.28-11.92Q35.87-11.08 35.30-10.30Q34.74-9.53 33.98-8.98Q33.22-8.43 32.23-8.43L32.23-8.43Q30.48-8.43 29.71-9.80Q28.95-11.17 28.95-13.94L28.95-13.94Q28.95-14.92 28.96-15.92Q28.98-16.91 29.07-17.92L29.07-17.92Q25.91-17.85 22.89-17.75Q19.88-17.64 16.77-17.50L16.77-17.50Q15.50-15.63 14.15-14.02Q12.80-12.41 11.41-11.23Q10.02-10.05 8.57-9.38Q7.13-8.71 5.68-8.71L5.68-8.71Q4.60-8.71 3.83-9.10Q3.05-9.48 2.52-10.13Q1.98-10.77 1.61-11.59Q1.25-12.41 1.04-13.27Q0.83-14.13 0.71-14.96Q0.59-15.79 0.50-16.45L0.50-16.45ZM17.63-18.74L17.63-18.74Q18.99-18.79 20.45-18.85Q21.90-18.91 23.38-18.96Q24.85-19.02 26.30-19.08Q27.76-19.14 29.12-19.19L29.12-19.19Q29.26-21.77 29.48-24.47Q29.70-27.18 29.90-29.88Q30.10-32.57 30.25-35.20Q30.41-37.82 30.41-40.26L30.41-40.26Q30.41-40.42 30.39-40.73Q30.38-41.03 30.36-41.31Q30.34-41.59 30.29-41.80Q30.24-42.02 30.17-42.02L30.17-42.02Q29.84-42.02 29.22-40.97Q28.60-39.93 27.73-38.16Q26.87-36.39 25.78-34.06Q24.69-31.73 23.40-29.14Q22.11-26.55 20.66-23.86Q19.20-21.18 17.63-18.74ZM39.48-20.08L39.48-20.08Q39.59-20.08 39.66-19.89Q39.73-19.70 39.77-19.45Q39.80-19.19 39.80-18.89Q39.80-18.60 39.80-18.37L39.80-18.37Q39.80-17.76 39.77-17.11Q39.73-16.47 39.70-15.87Q39.66-15.27 39.64-14.77Q39.62-14.27 39.62-13.94L39.62-13.94Q39.62-13.33 39.66-12.96Q39.71-12.60 39.90-12.60L39.90-12.60Q40.02-12.60 40.20-12.91Q40.39-13.21 40.61-13.64Q40.84-14.08 41.05-14.57Q41.26-15.06 41.45-15.44L41.45-15.44Q41.68-15.93 41.97-16.53Q42.27-17.13 42.59-17.65Q42.92-18.18 43.29-18.53Q43.65-18.88 44.05-18.88L44.05-18.88Q44.30-18.88 44.50-18.74Q44.70-18.60 44.84-18.38Q44.98-18.16 45.07-17.91Q45.15-17.66 45.20-17.45L45.20-17.45Q45.27-16.91 45.35-15.75Q45.43-14.59 45.57-13.28L45.57-13.28Q45.69-11.97 46.20-11.37Q46.72-10.77 47.54-10.77L47.54-10.77Q47.87-10.77 48.07-10.82Q48.27-10.87 48.41-10.87L48.41-10.87Q48.52-10.87 48.45-10.63L48.45-10.63Q48.43-10.59 48.35-10.50Q48.27-10.42 48.08-10.33Q47.89-10.23 47.57-10.16Q47.26-10.09 46.81-10.09L46.81-10.09Q46.06-10.09 45.57-10.34Q45.08-10.59 44.77-11.13Q44.47-11.66 44.33-12.52Q44.19-13.38 44.14-14.57L44.14-14.57Q44.09-15.13 44.06-15.66Q44.02-16.19 43.94-16.60Q43.86-17.01 43.72-17.25Q43.58-17.50 43.32-17.50L43.32-17.50Q43.11-17.50 42.82-17.08Q42.52-16.66 42.24-16.08Q41.96-15.51 41.71-14.90Q41.47-14.29 41.30-13.94L41.30-13.94Q40.79-12.84 40.45-12.13Q40.11-11.43 39.71-10.77L39.71-10.77Q39.59-10.59 39.46-10.47Q39.34-10.35 39.15-10.35L39.15-10.35Q38.87-10.35 38.70-10.82Q38.54-11.29 38.46-11.90Q38.38-12.51 38.35-13.13Q38.33-13.75 38.33-14.08L38.33-14.08Q38.33-14.45 38.34-14.99Q38.35-15.53 38.38-16.05Q38.40-16.56 38.41-16.98Q38.42-17.41 38.42-17.55L38.42-17.55Q38.42-17.69 38.41-17.93Q38.40-18.18 38.40-18.43Q38.40-18.67 38.39-18.87Q38.38-19.07 38.38-19.14L38.38-19.14Q38.38-19.33 38.48-19.46Q38.59-19.59 38.70-19.66L38.70-19.66Q38.82-19.73 39.08-19.90Q39.34-20.08 39.48-20.08ZM48.31-12.27L48.03-12.46Q48.83-13.73 49.46-15.05Q50.09-16.38 50.52-17.64L50.52-17.64Q49.95-18.44 49.57-19.27Q49.18-20.10 49.18-20.99L49.18-20.99Q49.18-21.86 49.34-22.56Q49.51-23.27 49.79-23.76Q50.07-24.25 50.42-24.52Q50.77-24.79 51.15-24.79L51.15-24.79Q51.66-24.79 51.98-24.27Q52.30-23.76 52.25-22.96L52.25-22.96Q52.20-22.02 52.00-20.95Q51.80-19.87 51.43-18.74L51.43-18.74Q51.90-18.20 52.40-17.68Q52.91-17.15 53.32-16.59Q53.73-16.02 54.00-15.38Q54.27-14.73 54.27-13.98L54.27-13.98Q54.27-12.95 53.88-12.09Q53.49-11.22 52.95-10.59Q52.41-9.95 51.83-9.60Q51.24-9.25 50.82-9.25L50.82-9.25Q50.09-9.25 49.71-9.63Q49.32-10 49.32-10.45L49.32-10.45Q49.32-10.80 49.44-11.15Q49.55-11.50 49.71-11.79Q49.86-12.09 50.01-12.27Q50.16-12.46 50.23-12.46L50.23-12.46Q50.35-12.46 50.39-12.38Q50.42-12.30 50.42-12.23L50.42-12.23Q50.42-12.11 50.40-11.90Q50.38-11.69 50.38-11.55L50.38-11.55Q50.38-11.15 50.64-10.89Q50.91-10.63 51.52-10.63L51.52-10.63Q51.78-10.63 52.11-10.75Q52.44-10.87 52.74-11.13Q53.05-11.38 53.25-11.77Q53.45-12.16 53.45-12.70L53.45-12.70Q53.45-13.19 53.21-13.73Q52.98-14.27 52.60-14.83Q52.23-15.39 51.77-15.98Q51.31-16.56 50.87-17.17L50.87-17.17Q50.33-15.84 49.68-14.58Q49.04-13.33 48.31-12.27L48.31-12.27ZM49.81-22.21L49.81-22.21Q49.81-21.32 50.14-20.63Q50.47-19.94 51.01-19.28L51.01-19.28Q51.20-20.01 51.27-20.68Q51.34-21.34 51.34-21.95L51.34-21.95Q51.34-23.59 50.61-23.59L50.61-23.59Q50.40-23.59 50.11-23.28Q49.81-22.96 49.81-22.21ZM57.01-13.19L57.01-13.19Q57.01-13.80 57.08-15.17Q57.15-16.54 57.24-18.65Q57.34-20.76 57.41-23.57Q57.48-26.38 57.48-29.88L57.48-29.88Q57.48-31.59 57.46-33.17Q57.45-34.75 57.43-35.98Q57.41-37.21 57.39-37.97Q57.38-38.73 57.38-38.80L57.38-38.80Q57.38-38.99 57.44-39.13Q57.50-39.27 57.69-39.39L57.69-39.39Q57.83-39.46 58.03-39.59Q58.23-39.72 58.44-39.72L58.44-39.72Q58.70-39.72 58.84-39.58L58.84-39.58Q58.98-39.46 59.06-39.14Q59.14-38.83 59.19-38.07Q59.23-37.30 59.25-35.96Q59.26-34.61 59.26-32.48L59.26-32.48Q59.26-30.51 59.16-28.40Q59.07-26.29 58.94-24.25Q58.81-22.21 58.66-20.34Q58.51-18.46 58.38-16.96Q58.25-15.46 58.16-14.46Q58.06-13.47 58.06-13.19L58.06-13.19Q58.06-13.07 58.06-12.91Q58.06-12.74 58.09-12.59Q58.11-12.44 58.16-12.33Q58.20-12.23 58.30-12.23L58.30-12.23Q58.53-12.23 58.79-12.98Q59.05-13.73 59.45-14.99L59.45-14.99Q59.70-15.79 60.03-16.61Q60.36-17.43 60.72-18.10Q61.09-18.77 61.47-19.19Q61.86-19.61 62.23-19.61L62.23-19.61Q62.52-19.61 62.71-19.45Q62.91-19.28 63.05-19.04Q63.20-18.79 63.27-18.51Q63.34-18.23 63.38-17.97L63.38-17.97Q63.41-17.69 63.45-17.13Q63.50-16.56 63.55-15.84Q63.59-15.11 63.65-14.31Q63.71-13.52 63.78-12.79L63.78-12.79Q63.90-11.48 64.41-10.89Q64.93-10.30 65.75-10.30L65.75-10.30Q66.08-10.30 66.27-10.35Q66.45-10.40 66.62-10.40L66.62-10.40Q66.73-10.40 66.66-10.16L66.66-10.16Q66.62-10.07 66.27-9.85Q65.91-9.63 65.02-9.63L65.02-9.63Q64.27-9.63 63.77-9.87Q63.27-10.12 62.97-10.64Q62.68-11.17 62.53-12.03Q62.38-12.88 62.33-14.08L62.33-14.08Q62.28-14.76 62.25-15.50Q62.21-16.23 62.13-16.84Q62.05-17.45 61.91-17.84Q61.77-18.23 61.51-18.23L61.51-18.23Q61.30-18.23 61.04-17.75Q60.78-17.27 60.54-16.62Q60.29-15.98 60.08-15.33Q59.87-14.69 59.75-14.34L59.75-14.34Q59.66-14.05 59.47-13.40Q59.28-12.74 59.02-12.06Q58.77-11.38 58.46-10.87Q58.16-10.35 57.83-10.35L57.83-10.35Q57.55-10.35 57.38-10.67Q57.22-10.98 57.14-11.44Q57.05-11.90 57.03-12.38Q57.01-12.86 57.01-13.19Z"></path></g></g></svg>